<svg xmlns="http://www.w3.org/2000/svg" viewBox="0 0 46.92 46.92"><defs><style>.cls-1{fill:#f4c49c;}</style></defs><g id="Layer_2" data-name="Layer 2"><g id="Layer_1-2" data-name="Layer 1"><rect width="46.92" height="46.92"/><path class="cls-1" d="M14.88,24.9H4.56A7.78,7.78,0,0,0,4.38,26,2.08,2.08,0,0,0,6.3,28.5H4.38A2.24,2.24,0,0,1,2.22,26a10.31,10.31,0,0,0,.24-1.08c1.92-10.08,10.68-17.82,21-17.82C19.14,7.08,15.72,14.82,14.88,24.9Zm27.66,3.6H40.62A2.11,2.11,0,0,0,42.54,26a10.31,10.31,0,0,1-.24-1.08H32.22V26c0,1.5-.18,2.52-.84,2.52H15.72c-.42,0-.84-1.26-.84-2.52V24.9H32c-.9-10.08-4.32-17.82-8.58-17.82,10.26,0,19.08,7.74,21,17.82,0,.42.18.6.18,1.08A2.09,2.09,0,0,1,42.54,28.5ZM24.72,7.08H22.14V4.32A1.29,1.29,0,0,1,23.46,3a1.25,1.25,0,0,1,1.26,1.32ZM22.14,30h2.58V41.58a1.36,1.36,0,0,1-1.26,1.32,1.26,1.26,0,0,1-1.32-1.32Z"/></g></g></svg>